<mxfile host="app.diagrams.net" modified="2023-07-21T15:30:32.105Z" agent="Mozilla/5.0 (Windows NT 10.0; Win64; x64) AppleWebKit/537.36 (KHTML, like Gecko) Chrome/114.0.0.0 Safari/537.36 Edg/114.0.1823.82" etag="09RSdsr1kU_eVfSHoKdz" version="21.6.3" type="github">
  <diagram name="第 1 页" id="SRQq3CIoWRfrS9Mj7izF">
    <mxGraphModel dx="1166" dy="775" grid="1" gridSize="10" guides="1" tooltips="1" connect="1" arrows="1" fold="1" page="1" pageScale="1" pageWidth="827" pageHeight="1169" math="0" shadow="0">
      <root>
        <mxCell id="0" />
        <mxCell id="1" parent="0" />
        <mxCell id="QsuP5IK2P8BCN2dnbRPv-3" value="" style="edgeStyle=orthogonalEdgeStyle;rounded=0;orthogonalLoop=1;jettySize=auto;html=1;" edge="1" parent="1" source="QsuP5IK2P8BCN2dnbRPv-1" target="QsuP5IK2P8BCN2dnbRPv-2">
          <mxGeometry relative="1" as="geometry" />
        </mxCell>
        <mxCell id="QsuP5IK2P8BCN2dnbRPv-1" value="" style="ellipse;whiteSpace=wrap;html=1;rounded=0;shadow=0;comic=0;labelBackgroundColor=none;strokeWidth=1;fillColor=#000000;fontFamily=Verdana;fontSize=12;align=center;" vertex="1" parent="1">
          <mxGeometry x="40" y="350" width="30" height="30" as="geometry" />
        </mxCell>
        <mxCell id="QsuP5IK2P8BCN2dnbRPv-7" style="edgeStyle=orthogonalEdgeStyle;rounded=0;orthogonalLoop=1;jettySize=auto;html=1;" edge="1" parent="1" source="QsuP5IK2P8BCN2dnbRPv-2" target="QsuP5IK2P8BCN2dnbRPv-4">
          <mxGeometry relative="1" as="geometry" />
        </mxCell>
        <mxCell id="QsuP5IK2P8BCN2dnbRPv-2" value="签订合同" style="rounded=1;whiteSpace=wrap;html=1;" vertex="1" parent="1">
          <mxGeometry x="100" y="350" width="100" height="30" as="geometry" />
        </mxCell>
        <mxCell id="QsuP5IK2P8BCN2dnbRPv-8" value="" style="edgeStyle=orthogonalEdgeStyle;rounded=0;orthogonalLoop=1;jettySize=auto;html=1;" edge="1" parent="1" source="QsuP5IK2P8BCN2dnbRPv-4" target="QsuP5IK2P8BCN2dnbRPv-5">
          <mxGeometry relative="1" as="geometry" />
        </mxCell>
        <mxCell id="QsuP5IK2P8BCN2dnbRPv-4" value="借款申请" style="rounded=1;whiteSpace=wrap;html=1;" vertex="1" parent="1">
          <mxGeometry x="230" y="350" width="100" height="30" as="geometry" />
        </mxCell>
        <mxCell id="QsuP5IK2P8BCN2dnbRPv-10" style="edgeStyle=orthogonalEdgeStyle;rounded=0;orthogonalLoop=1;jettySize=auto;html=1;entryX=0.5;entryY=0;entryDx=0;entryDy=0;" edge="1" parent="1" source="QsuP5IK2P8BCN2dnbRPv-5">
          <mxGeometry relative="1" as="geometry">
            <mxPoint x="413.5" y="410" as="targetPoint" />
          </mxGeometry>
        </mxCell>
        <mxCell id="QsuP5IK2P8BCN2dnbRPv-5" value="借款试算" style="rounded=1;whiteSpace=wrap;html=1;" vertex="1" parent="1">
          <mxGeometry x="364" y="350" width="100" height="30" as="geometry" />
        </mxCell>
        <mxCell id="QsuP5IK2P8BCN2dnbRPv-13" style="edgeStyle=orthogonalEdgeStyle;rounded=0;orthogonalLoop=1;jettySize=auto;html=1;entryX=0.5;entryY=0;entryDx=0;entryDy=0;" edge="1" parent="1" source="QsuP5IK2P8BCN2dnbRPv-11" target="QsuP5IK2P8BCN2dnbRPv-12">
          <mxGeometry relative="1" as="geometry" />
        </mxCell>
        <mxCell id="QsuP5IK2P8BCN2dnbRPv-11" value="生成还款计划" style="rounded=1;whiteSpace=wrap;html=1;" vertex="1" parent="1">
          <mxGeometry x="364" y="410" width="100" height="30" as="geometry" />
        </mxCell>
        <mxCell id="QsuP5IK2P8BCN2dnbRPv-16" style="rounded=0;orthogonalLoop=1;jettySize=auto;html=1;entryX=0.573;entryY=-0.056;entryDx=0;entryDy=0;entryPerimeter=0;" edge="1" parent="1" source="QsuP5IK2P8BCN2dnbRPv-12" target="QsuP5IK2P8BCN2dnbRPv-14">
          <mxGeometry relative="1" as="geometry" />
        </mxCell>
        <mxCell id="QsuP5IK2P8BCN2dnbRPv-17" style="rounded=0;orthogonalLoop=1;jettySize=auto;html=1;entryX=0.5;entryY=0;entryDx=0;entryDy=0;" edge="1" parent="1" source="QsuP5IK2P8BCN2dnbRPv-12" target="QsuP5IK2P8BCN2dnbRPv-15">
          <mxGeometry relative="1" as="geometry" />
        </mxCell>
        <mxCell id="QsuP5IK2P8BCN2dnbRPv-12" value="" style="whiteSpace=wrap;html=1;rounded=0;shadow=0;comic=0;labelBackgroundColor=none;strokeWidth=1;fillColor=#000000;fontFamily=Verdana;fontSize=12;align=center;rotation=0;" vertex="1" parent="1">
          <mxGeometry x="340.5" y="470" width="147" height="10" as="geometry" />
        </mxCell>
        <mxCell id="QsuP5IK2P8BCN2dnbRPv-19" style="rounded=0;orthogonalLoop=1;jettySize=auto;html=1;entryX=0.25;entryY=0;entryDx=0;entryDy=0;" edge="1" parent="1" source="QsuP5IK2P8BCN2dnbRPv-14" target="QsuP5IK2P8BCN2dnbRPv-18">
          <mxGeometry relative="1" as="geometry" />
        </mxCell>
        <mxCell id="QsuP5IK2P8BCN2dnbRPv-14" value="保存还款计划至数据库" style="rounded=1;whiteSpace=wrap;html=1;" vertex="1" parent="1">
          <mxGeometry x="290" y="510" width="100" height="30" as="geometry" />
        </mxCell>
        <mxCell id="QsuP5IK2P8BCN2dnbRPv-20" style="rounded=0;orthogonalLoop=1;jettySize=auto;html=1;entryX=0.75;entryY=0;entryDx=0;entryDy=0;" edge="1" parent="1" source="QsuP5IK2P8BCN2dnbRPv-15" target="QsuP5IK2P8BCN2dnbRPv-18">
          <mxGeometry relative="1" as="geometry" />
        </mxCell>
        <mxCell id="QsuP5IK2P8BCN2dnbRPv-15" value="还款计划存至个人中心" style="rounded=1;whiteSpace=wrap;html=1;" vertex="1" parent="1">
          <mxGeometry x="440" y="510" width="100" height="30" as="geometry" />
        </mxCell>
        <mxCell id="QsuP5IK2P8BCN2dnbRPv-22" value="" style="edgeStyle=orthogonalEdgeStyle;rounded=0;orthogonalLoop=1;jettySize=auto;html=1;" edge="1" parent="1" source="QsuP5IK2P8BCN2dnbRPv-18" target="QsuP5IK2P8BCN2dnbRPv-21">
          <mxGeometry relative="1" as="geometry" />
        </mxCell>
        <mxCell id="QsuP5IK2P8BCN2dnbRPv-18" value="" style="whiteSpace=wrap;html=1;rounded=0;shadow=0;comic=0;labelBackgroundColor=none;strokeWidth=1;fillColor=#000000;fontFamily=Verdana;fontSize=12;align=center;rotation=0;" vertex="1" parent="1">
          <mxGeometry x="340" y="570" width="147" height="10" as="geometry" />
        </mxCell>
        <mxCell id="QsuP5IK2P8BCN2dnbRPv-24" style="edgeStyle=orthogonalEdgeStyle;rounded=0;orthogonalLoop=1;jettySize=auto;html=1;entryX=0.5;entryY=0;entryDx=0;entryDy=0;" edge="1" parent="1" source="QsuP5IK2P8BCN2dnbRPv-21" target="QsuP5IK2P8BCN2dnbRPv-23">
          <mxGeometry relative="1" as="geometry" />
        </mxCell>
        <mxCell id="QsuP5IK2P8BCN2dnbRPv-21" value="放款" style="rounded=1;whiteSpace=wrap;html=1;" vertex="1" parent="1">
          <mxGeometry x="364" y="610" width="100" height="30" as="geometry" />
        </mxCell>
        <mxCell id="QsuP5IK2P8BCN2dnbRPv-28" style="rounded=0;orthogonalLoop=1;jettySize=auto;html=1;entryX=0.5;entryY=0;entryDx=0;entryDy=0;" edge="1" parent="1" source="QsuP5IK2P8BCN2dnbRPv-23" target="QsuP5IK2P8BCN2dnbRPv-25">
          <mxGeometry relative="1" as="geometry" />
        </mxCell>
        <mxCell id="QsuP5IK2P8BCN2dnbRPv-29" value="" style="edgeStyle=orthogonalEdgeStyle;rounded=0;orthogonalLoop=1;jettySize=auto;html=1;" edge="1" parent="1" source="QsuP5IK2P8BCN2dnbRPv-23" target="QsuP5IK2P8BCN2dnbRPv-26">
          <mxGeometry relative="1" as="geometry" />
        </mxCell>
        <mxCell id="QsuP5IK2P8BCN2dnbRPv-30" style="rounded=0;orthogonalLoop=1;jettySize=auto;html=1;entryX=0.5;entryY=0;entryDx=0;entryDy=0;" edge="1" parent="1" source="QsuP5IK2P8BCN2dnbRPv-23" target="QsuP5IK2P8BCN2dnbRPv-27">
          <mxGeometry relative="1" as="geometry" />
        </mxCell>
        <mxCell id="QsuP5IK2P8BCN2dnbRPv-23" value="" style="whiteSpace=wrap;html=1;rounded=0;shadow=0;comic=0;labelBackgroundColor=none;strokeWidth=1;fillColor=#000000;fontFamily=Verdana;fontSize=12;align=center;rotation=0;" vertex="1" parent="1">
          <mxGeometry x="340.5" y="670" width="147" height="10" as="geometry" />
        </mxCell>
        <mxCell id="QsuP5IK2P8BCN2dnbRPv-38" style="edgeStyle=orthogonalEdgeStyle;rounded=0;orthogonalLoop=1;jettySize=auto;html=1;entryX=0;entryY=0.75;entryDx=0;entryDy=0;" edge="1" parent="1" source="QsuP5IK2P8BCN2dnbRPv-25" target="QsuP5IK2P8BCN2dnbRPv-37">
          <mxGeometry relative="1" as="geometry" />
        </mxCell>
        <mxCell id="QsuP5IK2P8BCN2dnbRPv-25" value="更新授信可用额度" style="rounded=1;whiteSpace=wrap;html=1;" vertex="1" parent="1">
          <mxGeometry x="240.5" y="710" width="100" height="30" as="geometry" />
        </mxCell>
        <mxCell id="QsuP5IK2P8BCN2dnbRPv-32" style="edgeStyle=orthogonalEdgeStyle;rounded=0;orthogonalLoop=1;jettySize=auto;html=1;entryX=0.5;entryY=0;entryDx=0;entryDy=0;" edge="1" parent="1" source="QsuP5IK2P8BCN2dnbRPv-26" target="QsuP5IK2P8BCN2dnbRPv-31">
          <mxGeometry relative="1" as="geometry" />
        </mxCell>
        <mxCell id="QsuP5IK2P8BCN2dnbRPv-26" value="生成借据详情" style="rounded=1;whiteSpace=wrap;html=1;" vertex="1" parent="1">
          <mxGeometry x="364" y="710" width="100" height="30" as="geometry" />
        </mxCell>
        <mxCell id="QsuP5IK2P8BCN2dnbRPv-39" style="edgeStyle=orthogonalEdgeStyle;rounded=0;orthogonalLoop=1;jettySize=auto;html=1;entryX=1;entryY=0.75;entryDx=0;entryDy=0;exitX=0.5;exitY=1;exitDx=0;exitDy=0;" edge="1" parent="1" source="QsuP5IK2P8BCN2dnbRPv-27" target="QsuP5IK2P8BCN2dnbRPv-37">
          <mxGeometry relative="1" as="geometry">
            <Array as="points">
              <mxPoint x="538" y="878" />
            </Array>
          </mxGeometry>
        </mxCell>
        <mxCell id="QsuP5IK2P8BCN2dnbRPv-27" value="资金入账" style="rounded=1;whiteSpace=wrap;html=1;" vertex="1" parent="1">
          <mxGeometry x="487.5" y="710" width="100" height="30" as="geometry" />
        </mxCell>
        <mxCell id="QsuP5IK2P8BCN2dnbRPv-35" style="rounded=0;orthogonalLoop=1;jettySize=auto;html=1;entryX=0.5;entryY=0;entryDx=0;entryDy=0;" edge="1" parent="1" source="QsuP5IK2P8BCN2dnbRPv-31" target="QsuP5IK2P8BCN2dnbRPv-33">
          <mxGeometry relative="1" as="geometry" />
        </mxCell>
        <mxCell id="QsuP5IK2P8BCN2dnbRPv-36" style="rounded=0;orthogonalLoop=1;jettySize=auto;html=1;entryX=0.5;entryY=0;entryDx=0;entryDy=0;" edge="1" parent="1" source="QsuP5IK2P8BCN2dnbRPv-31" target="QsuP5IK2P8BCN2dnbRPv-34">
          <mxGeometry relative="1" as="geometry" />
        </mxCell>
        <mxCell id="QsuP5IK2P8BCN2dnbRPv-31" value="" style="whiteSpace=wrap;html=1;rounded=0;shadow=0;comic=0;labelBackgroundColor=none;strokeWidth=1;fillColor=#000000;fontFamily=Verdana;fontSize=12;align=center;rotation=0;" vertex="1" parent="1">
          <mxGeometry x="340" y="770" width="147" height="10" as="geometry" />
        </mxCell>
        <mxCell id="QsuP5IK2P8BCN2dnbRPv-46" style="edgeStyle=orthogonalEdgeStyle;rounded=0;orthogonalLoop=1;jettySize=auto;html=1;entryX=0.163;entryY=0.1;entryDx=0;entryDy=0;entryPerimeter=0;" edge="1" parent="1" source="QsuP5IK2P8BCN2dnbRPv-33" target="QsuP5IK2P8BCN2dnbRPv-37">
          <mxGeometry relative="1" as="geometry" />
        </mxCell>
        <mxCell id="QsuP5IK2P8BCN2dnbRPv-33" value="保存借据详情至数据库" style="rounded=1;whiteSpace=wrap;html=1;" vertex="1" parent="1">
          <mxGeometry x="314" y="810" width="100" height="30" as="geometry" />
        </mxCell>
        <mxCell id="QsuP5IK2P8BCN2dnbRPv-44" style="edgeStyle=orthogonalEdgeStyle;rounded=0;orthogonalLoop=1;jettySize=auto;html=1;entryX=0.884;entryY=0.1;entryDx=0;entryDy=0;entryPerimeter=0;" edge="1" parent="1" source="QsuP5IK2P8BCN2dnbRPv-34" target="QsuP5IK2P8BCN2dnbRPv-37">
          <mxGeometry relative="1" as="geometry" />
        </mxCell>
        <mxCell id="QsuP5IK2P8BCN2dnbRPv-34" value="借据详情存至个人中心" style="rounded=1;whiteSpace=wrap;html=1;" vertex="1" parent="1">
          <mxGeometry x="420" y="810" width="100" height="30" as="geometry" />
        </mxCell>
        <mxCell id="QsuP5IK2P8BCN2dnbRPv-48" value="" style="edgeStyle=orthogonalEdgeStyle;rounded=0;orthogonalLoop=1;jettySize=auto;html=1;" edge="1" parent="1" source="QsuP5IK2P8BCN2dnbRPv-37" target="QsuP5IK2P8BCN2dnbRPv-47">
          <mxGeometry relative="1" as="geometry" />
        </mxCell>
        <mxCell id="QsuP5IK2P8BCN2dnbRPv-37" value="" style="whiteSpace=wrap;html=1;rounded=0;shadow=0;comic=0;labelBackgroundColor=none;strokeWidth=1;fillColor=#000000;fontFamily=Verdana;fontSize=12;align=center;rotation=0;" vertex="1" parent="1">
          <mxGeometry x="340" y="870" width="147" height="10" as="geometry" />
        </mxCell>
        <mxCell id="QsuP5IK2P8BCN2dnbRPv-50" value="" style="edgeStyle=orthogonalEdgeStyle;rounded=0;orthogonalLoop=1;jettySize=auto;html=1;" edge="1" parent="1" source="QsuP5IK2P8BCN2dnbRPv-47" target="QsuP5IK2P8BCN2dnbRPv-49">
          <mxGeometry relative="1" as="geometry" />
        </mxCell>
        <mxCell id="QsuP5IK2P8BCN2dnbRPv-47" value="放款通知" style="rounded=1;whiteSpace=wrap;html=1;" vertex="1" parent="1">
          <mxGeometry x="364" y="910" width="100" height="30" as="geometry" />
        </mxCell>
        <mxCell id="QsuP5IK2P8BCN2dnbRPv-49" value="" style="shape=mxgraph.bpmn.shape;html=1;verticalLabelPosition=bottom;labelBackgroundColor=#ffffff;verticalAlign=top;perimeter=ellipsePerimeter;outline=end;symbol=terminate;rounded=0;shadow=0;comic=0;strokeWidth=1;fontFamily=Verdana;fontSize=12;align=center;" vertex="1" parent="1">
          <mxGeometry x="500" y="910" width="30" height="30" as="geometry" />
        </mxCell>
      </root>
    </mxGraphModel>
  </diagram>
</mxfile>
